HIERARCHY
ROOT Hips
{
	OFFSET	0.00	0.00	0.00
	CHANNELS 6 Xposition Yposition Zposition Zrotation Xrotation Yrotation
	JOINT LeftUpLeg
	{
		OFFSET	 0.126116	-0.014019	-0.065224
		CHANNELS 3 Zrotation Xrotation Yrotation
		JOINT LeftLeg
		{
			OFFSET	 0.000000	 0.000000	 0.569914
			CHANNELS 3 Zrotation Xrotation Yrotation
			JOINT LeftFoot
			{
				OFFSET	 0.000000	 0.000000	 0.544423
				CHANNELS 3 Zrotation Xrotation Yrotation
				JOINT LeftToeBase
				{
					OFFSET	 0.000000	 0.000000	 0.207117
					CHANNELS 3 Zrotation Xrotation Yrotation
					End Site
					{
						OFFSET	 0.000000	 0.000000	 0.207117
					}
				}
			}
		}
	}
	JOINT RightUpLeg
	{
		OFFSET	-0.124023	-0.008373	-0.065224
		CHANNELS 3 Zrotation Xrotation Yrotation
		JOINT RightLeg
		{
			OFFSET	 0.000000	 0.000000	 0.570047
			CHANNELS 3 Zrotation Xrotation Yrotation
			JOINT RightFoot
			{
				OFFSET	 0.000000	 0.000000	 0.544354
				CHANNELS 3 Zrotation Xrotation Yrotation
				JOINT RightToeBase
				{
					OFFSET	 0.000000	 0.000000	 0.207540
					CHANNELS 3 Zrotation Xrotation Yrotation
					End Site
					{
						OFFSET	 0.000000	 0.000000	 0.207540
					}
				}
			}
		}
	}
	JOINT Spine
	{
		OFFSET	 0.000184	-0.007763	 0.117403
		CHANNELS 3 Zrotation Xrotation Yrotation
		JOINT Spine1
		{
			OFFSET	 0.000000	 0.000000	 0.137269
			CHANNELS 3 Zrotation Xrotation Yrotation
			JOINT Spine2
			{
				OFFSET	 0.000000	 0.000000	 0.156879
				CHANNELS 3 Zrotation Xrotation Yrotation
				JOINT LeftShoulder
				{
					OFFSET	 0.080501	-0.002496	 0.160144
					CHANNELS 3 Zrotation Xrotation Yrotation
					JOINT LeftArm
					{
						OFFSET	 0.000000	 0.000000	 0.164363
						CHANNELS 3 Zrotation Xrotation Yrotation
						JOINT LeftForeArm
						{
							OFFSET	 0.000000	 0.000000	 0.364576
							CHANNELS 3 Zrotation Xrotation Yrotation
							JOINT LeftHand
							{
								OFFSET	 0.000000	 0.000000	 0.360812
								CHANNELS 3 Zrotation Xrotation Yrotation
								JOINT LeftHandIndex1
								{
									OFFSET	 0.000000	 0.000000	 0.086006
									CHANNELS 3 Zrotation Xrotation Yrotation
									JOINT LeftHandIndex2
									{
										OFFSET	 0.000000	 0.000000	 0.047237
										CHANNELS 3 Zrotation Xrotation Yrotation
										JOINT LeftHandIndex3
										{
											OFFSET	-0.004284	-0.000551	 0.038165
											CHANNELS 3 Zrotation Xrotation Yrotation
											End Site
											{
												OFFSET	-0.004284	-0.000551	 0.038165
											}
										}
									}
								}
							}
						}
					}
				}
				JOINT Neck
				{
					OFFSET	 0.000000	 0.000000	 0.176489
					CHANNELS 3 Zrotation Xrotation Yrotation
					JOINT Head
					{
						OFFSET	 0.000000	-0.001747	 0.077940
						CHANNELS 3 Zrotation Xrotation Yrotation
						End Site
						{
							OFFSET	 0.000000	-0.001747	 0.077940
						}
					}
				}
				JOINT RightShoulder
				{
					OFFSET	-0.080363	 0.000306	 0.159706
					CHANNELS 3 Zrotation Xrotation Yrotation
					JOINT RightArm
					{
						OFFSET	 0.000000	 0.000000	 0.164196
						CHANNELS 3 Zrotation Xrotation Yrotation
						JOINT RightForeArm
						{
							OFFSET	 0.000000	 0.000000	 0.365611
							CHANNELS 3 Zrotation Xrotation Yrotation
							JOINT RightHand
							{
								OFFSET	 0.000000	 0.000000	 0.360648
								CHANNELS 3 Zrotation Xrotation Yrotation
								JOINT RightHandIndex1
								{
									OFFSET	 0.000000	 0.000000	 0.069977
									CHANNELS 3 Zrotation Xrotation Yrotation
									JOINT RightHandIndex2
									{
										OFFSET	 0.000000	 0.000000	 0.052305
										CHANNELS 3 Zrotation Xrotation Yrotation
										JOINT RightHandIndex3
										{
											OFFSET	 0.009002	-0.000782	 0.042196
											CHANNELS 3 Zrotation Xrotation Yrotation
											End Site
											{
												OFFSET	 0.009002	-0.000782	 0.042196
											}
										}
									}
								}
							}
						}
					}
				}
			}
		}
	}
}
MOTION
Frames:    5
Frame Time: 0.03333334
-0.407049	 0.108735	 1.218195	-175.448900	 1.792863	 12.706390	 33.407840	-6.920151	 168.229500	-8.866105	-44.751000	-6.667543	 143.570200	 74.154560	-157.000300	-2.385833	 28.452760	 0.000004	-20.612700	-36.732520	 159.407600	 5.449188	-49.687160	 2.996037	-3.716495	 71.299980	 23.091770	 2.384659	 28.388700	-0.000001	 35.532340	-4.735579	-8.290815	 39.971280	 10.542930	 30.057870	 5.605147	 5.134541	-13.121300	-91.776170	 78.527350	 180.000000	-11.142130	 43.520490	-5.904922	-1.877517	-1.025486	-92.527190	 4.115522	-26.495830	-0.797832	-4.130319	 21.525730	 0.991547	-5.167930	 0.731704	 3.519349	-1.378229	 35.397820	-2.634230	-18.439400	 7.065546	 7.667952	-20.118790	-22.694970	-14.370700	 89.782290	 78.369710	 179.970500	 48.307250	-1.316707	-20.970240	-13.488690	-8.782243	 52.867490	-4.188976	 0.950529	-56.618640	 5.716227	 19.173190	-3.685159	 5.027444	 0.246877	-9.377972	-2.350882	 35.473990	 5.254307
-0.411710	 0.119627	 1.220758	-174.401500	 1.438768	 11.518720	 34.435170	-4.186206	 168.519000	-8.823774	-42.349320	-6.353317	 143.305200	 74.541820	-156.584700	-2.385833	 28.452760	 0.000004	-19.470480	-35.936660	 161.772100	 5.936238	-49.917280	 3.379673	-2.692655	 72.240970	 20.825220	 2.384659	 28.388700	-0.000001	 33.972980	-2.293639	-7.535877	 38.651040	 7.613343	 30.896700	 6.043152	 6.054730	-12.319370	-91.776240	 78.527360	-180.000000	-14.062100	 40.404460	 0.255194	-1.904652	-1.130698	-94.115250	 4.845225	-27.561870	-0.528719	-4.130319	 21.525730	 0.991547	-5.167930	 0.731704	 3.519349	-1.378229	 35.397820	-2.634230	-17.604010	 7.759341	 7.982780	-19.874220	-23.507380	-15.162130	 89.782340	 78.358690	 179.973200	 46.459530	-10.396020	-28.279230	-11.326260	-7.691489	 58.976040	-11.673420	 2.596902	-51.958570	 5.716227	 19.173190	-3.685159	 5.027444	 0.246877	-9.377972	-2.350882	 35.473990	 5.254307
-0.415172	 0.129142	 1.222751	-173.448800	 0.950108	 10.177000	 35.252910	-1.222433	 168.996800	-9.018996	-39.382020	-6.112662	 142.799900	 74.386830	-155.689300	-2.385833	 28.452760	 0.000004	-17.700630	-35.648050	 164.328900	 5.917625	-50.222470	 3.380400	 0.003235	 73.014690	 17.036360	 2.384659	 28.388700	-0.000001	 32.301780	-0.521262	-6.090237	 37.704730	 4.632566	 31.446150	 6.500426	 7.288258	-12.045930	-91.776250	 78.527380	-180.000000	-16.904210	 38.492010	 5.615354	-1.925935	-0.982371	-95.697690	 5.303056	-29.137360	-0.351467	-4.130319	 21.525730	 0.991547	-5.167930	 0.731704	 3.519349	-1.378229	 35.397820	-2.634230	-17.019190	 7.677098	 8.278395	-19.351650	-23.515830	-15.077850	 89.782260	 78.343550	 179.975800	 44.567660	-15.637970	-31.509700	-10.746820	-7.064414	 59.947790	-16.414300	 1.479384	-47.481380	 5.716227	 19.173190	-3.685159	 5.027444	 0.246877	-9.377972	-2.350882	 35.473990	 5.254307
-0.414954	 0.134387	 1.223823	-172.169300	 0.620626	 9.866948	 36.025080	-0.028370	 168.448200	-9.392638	-37.523600	-6.101477	 141.121700	 74.336500	-153.707300	-2.385833	 28.452760	 0.000004	-16.435410	-35.420440	 165.392400	 5.607411	-50.093540	 3.135572	 3.811614	 73.634990	 12.152540	 2.384659	 28.388700	-0.000001	 30.656700	 0.247955	-5.485967	 37.307610	 2.167098	 31.701600	 6.951113	 8.545792	-11.887830	-91.776180	 78.527400	 180.000000	-19.507890	 38.122790	 9.245870	-1.908988	-0.489701	-96.744770	 5.728834	-31.245010	-0.313341	-4.130319	 21.525730	 0.991547	-5.167930	 0.731704	 3.519349	-1.378229	 35.397820	-2.634230	-16.269160	 7.710923	 8.335170	-18.845600	-23.668920	-14.702920	 89.782200	 78.327950	 179.978700	 42.806530	-16.964820	-32.519670	-10.714310	-7.092081	 60.274700	-21.092860	-1.832486	-47.151450	 5.716227	 19.173190	-3.685159	 5.027444	 0.246877	-9.377972	-2.350882	 35.473990	 5.254307
-0.413886	 0.137760	 1.224683	-171.148700	 0.249861	 9.603899	 36.302350	 0.755907	 168.069900	-10.035380	-36.327220	-6.324285	 138.433100	 74.439100	-150.649200	-2.385833	 28.452760	 0.000004	-15.430540	-34.907640	 166.156500	 5.321254	-49.532550	 2.891664	 6.577124	 73.785760	 8.610600	 2.384659	 28.388700	-0.000001	 29.242400	 1.406682	-4.919256	 37.054930	-0.379177	 31.838960	 7.296350	 9.702371	-11.505890	-91.776170	 78.527330	 180.000000	-21.444940	 37.639680	 11.703890	-1.856842	 0.245453	-97.272990	 5.872398	-33.057080	-0.537561	-4.130319	 21.525730	 0.991547	-5.167930	 0.731704	 3.519349	-1.378229	 35.397820	-2.634230	-15.476080	 8.654299	 8.314439	-18.511950	-24.470650	-14.884020	 89.782160	 78.314580	 179.981200	 40.406740	-17.309340	-32.405510	-10.753590	-6.797537	 58.981960	-24.579860	-5.128396	-47.260270	 5.716227	 19.173190	-3.685159	 5.027444	 0.246877	-9.377972	-2.350882	 35.473990	 5.254307
